<svg width="24" height="24" viewBox="0 0 24 24" fill="none" xmlns="http://www.w3.org/2000/svg">
<path d="M21.0005 22C22.2147 21.0878 23 19.6356 23 18V20.087C23 21.1435 22.1419 22 21.0833 22H21.0005Z" fill="#00B0AB"/>
<path fill-rule="evenodd" clip-rule="evenodd" d="M18 13.75C15.6528 13.75 13.75 15.6528 13.75 18C13.75 20.3472 15.6528 22.25 18 22.25C20.3472 22.25 22.25 20.3472 22.25 18C22.25 15.6528 20.3472 13.75 18 13.75ZM12.25 18C12.25 14.8244 14.8244 12.25 18 12.25C21.1756 12.25 23.75 14.8244 23.75 18C23.75 21.1756 21.1756 23.75 18 23.75C14.8244 23.75 12.25 21.1756 12.25 18Z" fill="#00B0AB"/>
<path d="M15.5007 17.3792C15.6959 17.184 16.0125 17.184 16.2078 17.3792L17.6216 18.793C17.8168 18.9883 17.8168 19.3049 17.6216 19.5001C17.4263 19.6954 17.1097 19.6954 16.9145 19.5001L15.5007 18.0863C15.3054 17.8911 15.3054 17.5745 15.5007 17.3792Z" fill="#00B0AB"/>
<path fill-rule="evenodd" clip-rule="evenodd" d="M4.79167 0.47826C4.79167 0.21412 5.0062 0 5.27083 0H6.22917C6.4938 0 6.70833 0.21412 6.70833 0.47826V2.86957H16.2917V0.47826C16.2917 0.21412 16.5062 0 16.7708 0H17.7292C17.9938 0 18.2083 0.21412 18.2083 0.47826V2.86957H21.0833C22.1419 2.86957 23 3.72606 23 4.78261V18C23 16.4019 22.2503 14.9789 21.0833 14.0636V9.5652H1.91667V19.1304C1.91667 19.6587 2.34573 20.087 2.875 20.087H13.455C13.8043 20.8464 14.3383 21.5032 14.9995 22H1.91667C0.85812 22 0 21.1435 0 20.087V4.78261C0 3.72606 0.85812 2.86957 1.91667 2.86957H4.79167V0.47826ZM6.70833 4.78261H16.2917V5.73913C16.2917 6.00327 16.5062 6.21739 16.7708 6.21739H17.7292C17.9938 6.21739 18.2083 6.00327 18.2083 5.73913V4.78261H20.125C20.6543 4.78261 21.0833 5.21086 21.0833 5.73913V7.6522H1.91667V5.73913C1.91667 5.21086 2.34573 4.78261 2.875 4.78261H4.79167V5.73913C4.79167 6.00327 5.0062 6.21739 5.27083 6.21739H6.22917C6.4938 6.21739 6.70833 6.00327 6.70833 5.73913V4.78261Z" fill="#00B0AB"/>
<path d="M20.3253 16.0976C20.13 15.9023 19.8135 15.9023 19.6182 16.0976L16.9228 18.793C16.7275 18.9883 16.7275 19.3049 16.9228 19.5001C17.118 19.6954 17.4346 19.6954 17.6299 19.5001L20.3253 16.8047C20.5206 16.6094 20.5206 16.2929 20.3253 16.0976Z" fill="#00B0AB"/>
</svg>
