<svg width="27" height="27" viewBox="0 0 27 27" fill="none" xmlns="http://www.w3.org/2000/svg">
<path d="M18.9 21.375L15.75 25.3125L12.6 21.375H6.75C6.45163 21.375 6.16548 21.2565 5.9545 21.0455C5.74353 20.8345 5.625 20.5484 5.625 20.25V7.99088C5.625 7.69251 5.74353 7.40636 5.9545 7.19538C6.16548 6.9844 6.45163 6.86588 6.75 6.86588H24.75C25.0484 6.86588 25.3345 6.9844 25.5455 7.19538C25.7565 7.40636 25.875 7.69251 25.875 7.99088V20.25C25.875 20.5484 25.7565 20.8345 25.5455 21.0455C25.3345 21.2565 25.0484 21.375 24.75 21.375H18.9ZM2.25 2.25H21.375V4.5H3.375V16.875H1.125V3.375C1.125 3.07663 1.24353 2.79048 1.4545 2.5795C1.66548 2.36853 1.95163 2.25 2.25 2.25Z" fill="#00B0AB"/>
</svg>
