<svg width="25" height="24" viewBox="0 0 25 24" fill="none" xmlns="http://www.w3.org/2000/svg">
<path d="M17.9 19.375L14.75 23.3125L11.6 19.375H5.75C5.45163 19.375 5.16548 19.2565 4.9545 19.0455C4.74353 18.8345 4.625 18.5484 4.625 18.25V5.99088C4.625 5.69251 4.74353 5.40636 4.9545 5.19538C5.16548 4.9844 5.45163 4.86588 5.75 4.86588H23.75C24.0484 4.86588 24.3345 4.9844 24.5455 5.19538C24.7565 5.40636 24.875 5.69251 24.875 5.99088V18.25C24.875 18.5484 24.7565 18.8345 24.5455 19.0455C24.3345 19.2565 24.0484 19.375 23.75 19.375H17.9ZM1.25 0.25H20.375V2.5H2.375V14.875H0.125V1.375C0.125 1.07663 0.243526 0.790483 0.454505 0.579505C0.665483 0.368526 0.951631 0.25 1.25 0.25Z" fill="#00B0AB"/>
</svg>
