<svg width="22" height="19" viewBox="0 0 22 19" fill="none" xmlns="http://www.w3.org/2000/svg">
<path d="M14.8542 7.05375L9.77731 3.5992C9.64985 3.51241 9.50169 3.46256 9.34864 3.455C9.19559 3.44743 9.0434 3.48242 8.90832 3.55623C8.77323 3.63005 8.66032 3.73992 8.58164 3.87411C8.50295 4.00831 8.46144 4.16179 8.46154 4.31818V11.2273C8.46144 11.3837 8.50295 11.5371 8.58164 11.6713C8.66032 11.8055 8.77323 11.9154 8.90832 11.9892C9.0434 12.063 9.19559 12.098 9.34864 12.0905C9.50169 12.0829 9.64985 12.033 9.77731 11.9463L14.8542 8.4917C14.9703 8.41287 15.0655 8.30598 15.1313 8.18055C15.1971 8.05512 15.2316 7.91502 15.2316 7.77273C15.2316 7.63043 15.1971 7.49034 15.1313 7.3649C15.0655 7.23947 14.9703 7.13259 14.8542 7.05375ZM10.1538 9.61335V5.9375L12.8594 7.77273L10.1538 9.61335ZM20.3077 0H1.69231C1.24348 0 0.813035 0.18198 0.495665 0.505906C0.178296 0.829833 0 1.26917 0 1.72727V13.8182C0 14.2763 0.178296 14.7156 0.495665 15.0395C0.813035 15.3635 1.24348 15.5455 1.69231 15.5455H20.3077C20.7565 15.5455 21.187 15.3635 21.5043 15.0395C21.8217 14.7156 22 14.2763 22 13.8182V1.72727C22 1.26917 21.8217 0.829833 21.5043 0.505906C21.187 0.18198 20.7565 0 20.3077 0ZM20.3077 13.8182H1.69231V1.72727H20.3077V13.8182ZM22 18.1364C22 18.3654 21.9109 18.5851 21.7522 18.747C21.5935 18.909 21.3783 19 21.1538 19H0.846154C0.62174 19 0.406517 18.909 0.247833 18.747C0.0891481 18.5851 0 18.3654 0 18.1364C0 17.9073 0.0891481 17.6876 0.247833 17.5257C0.406517 17.3637 0.62174 17.2727 0.846154 17.2727H21.1538C21.3783 17.2727 21.5935 17.3637 21.7522 17.5257C21.9109 17.6876 22 17.9073 22 18.1364Z" fill="#00B0AB"/>
</svg>
