<svg width="226" height="45" viewBox="0 0 226 45" fill="none" xmlns="http://www.w3.org/2000/svg">
<path d="M3.008 29V6.6H12C13.6213 6.6 15.0827 6.86667 16.384 7.4C17.7067 7.93333 18.8373 8.70133 19.776 9.704C20.736 10.7067 21.4613 11.8907 21.952 13.256C22.464 14.6213 22.72 16.136 22.72 17.8C22.72 19.464 22.464 20.9893 21.952 22.376C21.4613 23.7413 20.7467 24.9253 19.808 25.928C18.8693 26.9093 17.7387 27.6667 16.416 28.2C15.0933 28.7333 13.6213 29 12 29H3.008ZM7.168 25.768L6.848 25.16H11.84C12.8853 25.16 13.8133 24.9893 14.624 24.648C15.456 24.3067 16.16 23.816 16.736 23.176C17.312 22.536 17.7493 21.768 18.048 20.872C18.3467 19.9547 18.496 18.9307 18.496 17.8C18.496 16.6693 18.3467 15.656 18.048 14.76C17.7493 13.8427 17.3013 13.064 16.704 12.424C16.128 11.784 15.4347 11.2933 14.624 10.952C13.8133 10.6107 12.8853 10.44 11.84 10.44H6.752L7.168 9.896V25.768ZM26.9708 29V12.136H30.9068V29H26.9708ZM28.8908 8.552C28.1014 8.552 27.4828 8.36 27.0348 7.976C26.6081 7.57067 26.3948 7.00533 26.3948 6.28C26.3948 5.59733 26.6188 5.04267 27.0668 4.616C27.5148 4.18933 28.1228 3.976 28.8908 3.976C29.7014 3.976 30.3201 4.17867 30.7468 4.584C31.1948 4.968 31.4188 5.53333 31.4188 6.28C31.4188 6.94133 31.1948 7.48533 30.7468 7.912C30.2988 8.33867 29.6801 8.552 28.8908 8.552ZM42.2658 29.32C40.8791 29.32 39.6204 28.936 38.4898 28.168C37.3591 27.4 36.4524 26.3547 35.7698 25.032C35.0871 23.7093 34.7458 22.2053 34.7458 20.52C34.7458 18.8347 35.0871 17.3307 35.7698 16.008C36.4524 14.6853 37.3804 13.6507 38.5538 12.904C39.7271 12.1573 41.0498 11.784 42.5218 11.784C43.3751 11.784 44.1538 11.912 44.8578 12.168C45.5618 12.4027 46.1804 12.744 46.7138 13.192C47.2471 13.64 47.6844 14.152 48.0258 14.728C48.3884 15.304 48.6338 15.9227 48.7618 16.584L47.8978 16.36V12.136H51.8658V29H47.8658V24.968L48.7938 24.808C48.6444 25.384 48.3671 25.9493 47.9618 26.504C47.5778 27.0373 47.0871 27.5173 46.4898 27.944C45.9138 28.3493 45.2631 28.68 44.5378 28.936C43.8338 29.192 43.0764 29.32 42.2658 29.32ZM43.3538 25.832C44.2711 25.832 45.0818 25.608 45.7858 25.16C46.4898 24.712 47.0338 24.0933 47.4178 23.304C47.8231 22.4933 48.0258 21.5653 48.0258 20.52C48.0258 19.496 47.8231 18.5893 47.4178 17.8C47.0338 17.0107 46.4898 16.392 45.7858 15.944C45.0818 15.496 44.2711 15.272 43.3538 15.272C42.4364 15.272 41.6258 15.496 40.9218 15.944C40.2391 16.392 39.7058 17.0107 39.3218 17.8C38.9378 18.5893 38.7458 19.496 38.7458 20.52C38.7458 21.5653 38.9378 22.4933 39.3218 23.304C39.7058 24.0933 40.2391 24.712 40.9218 25.16C41.6258 25.608 42.4364 25.832 43.3538 25.832ZM64.013 36.36C62.7543 36.36 61.4957 36.168 60.237 35.784C58.9997 35.4 57.997 34.8987 57.229 34.28L58.637 31.368C59.085 31.688 59.5863 31.9653 60.141 32.2C60.6957 32.4347 61.2823 32.616 61.901 32.744C62.541 32.872 63.1703 32.936 63.789 32.936C64.9197 32.936 65.8583 32.7547 66.605 32.392C67.373 32.0507 67.949 31.5173 68.333 30.792C68.717 30.088 68.909 29.2027 68.909 28.136V25.032L69.485 25.256C69.357 25.9173 69.005 26.5467 68.429 27.144C67.853 27.7413 67.1277 28.232 66.253 28.616C65.3783 28.9787 64.4823 29.16 63.565 29.16C61.965 29.16 60.5463 28.7867 59.309 28.04C58.093 27.2933 57.1223 26.28 56.397 25C55.693 23.6987 55.341 22.2053 55.341 20.52C55.341 18.8347 55.693 17.3413 56.397 16.04C57.101 14.7173 58.061 13.6827 59.277 12.936C60.5143 12.168 61.901 11.784 63.437 11.784C64.077 11.784 64.6957 11.8587 65.293 12.008C65.8903 12.1573 66.4343 12.3707 66.925 12.648C67.437 12.9253 67.8957 13.2347 68.301 13.576C68.7063 13.9173 69.037 14.28 69.293 14.664C69.549 15.048 69.709 15.4213 69.773 15.784L68.941 16.04L69.005 12.136H72.877V27.848C72.877 29.2133 72.6743 30.4187 72.269 31.464C71.8637 32.5093 71.277 33.3947 70.509 34.12C69.741 34.8667 68.813 35.4213 67.725 35.784C66.637 36.168 65.3997 36.36 64.013 36.36ZM64.173 25.8C65.133 25.8 65.9757 25.576 66.701 25.128C67.4477 24.68 68.0237 24.0613 68.429 23.272C68.8343 22.4827 69.037 21.576 69.037 20.552C69.037 19.5067 68.8237 18.5893 68.397 17.8C67.9917 16.9893 67.4263 16.36 66.701 15.912C65.9757 15.464 65.133 15.24 64.173 15.24C63.213 15.24 62.3703 15.4747 61.645 15.944C60.9197 16.392 60.3437 17.0213 59.917 17.832C59.5117 18.6213 59.309 19.528 59.309 20.552C59.309 21.5547 59.5117 22.4613 59.917 23.272C60.3437 24.0613 60.9197 24.68 61.645 25.128C62.3703 25.576 63.213 25.8 64.173 25.8ZM77.429 29V12.136H81.269L81.333 15.592L80.597 15.976C80.8103 15.208 81.2263 14.5147 81.845 13.896C82.4637 13.256 83.1997 12.744 84.053 12.36C84.9063 11.976 85.781 11.784 86.677 11.784C87.957 11.784 89.0237 12.04 89.877 12.552C90.7517 13.064 91.4023 13.832 91.829 14.856C92.277 15.88 92.501 17.16 92.501 18.696V29H88.565V18.984C88.565 18.1307 88.4477 17.4267 88.213 16.872C87.9783 16.296 87.6157 15.88 87.125 15.624C86.6343 15.3467 86.037 15.2187 85.333 15.24C84.757 15.24 84.2237 15.336 83.733 15.528C83.2637 15.6987 82.8477 15.9547 82.485 16.296C82.1437 16.616 81.8663 16.9893 81.653 17.416C81.461 17.8427 81.365 18.312 81.365 18.824V29H79.413C79.029 29 78.6663 29 78.325 29C78.005 29 77.7063 29 77.429 29ZM104.641 29.32C102.956 29.32 101.452 28.9467 100.129 28.2C98.8063 27.432 97.761 26.3867 96.993 25.064C96.225 23.7413 95.841 22.2373 95.841 20.552C95.841 18.8667 96.225 17.3627 96.993 16.04C97.761 14.7173 98.8063 13.6827 100.129 12.936C101.452 12.168 102.956 11.784 104.641 11.784C106.305 11.784 107.798 12.168 109.121 12.936C110.444 13.6827 111.478 14.7173 112.225 16.04C112.993 17.3627 113.377 18.8667 113.377 20.552C113.377 22.2373 112.993 23.7413 112.225 25.064C111.478 26.3867 110.444 27.432 109.121 28.2C107.798 28.9467 106.305 29.32 104.641 29.32ZM104.641 25.832C105.558 25.832 106.369 25.5973 107.073 25.128C107.798 24.6587 108.364 24.0293 108.769 23.24C109.196 22.4507 109.398 21.5547 109.377 20.552C109.398 19.528 109.196 18.6213 108.769 17.832C108.364 17.0427 107.798 16.424 107.073 15.976C106.369 15.5067 105.558 15.272 104.641 15.272C103.724 15.272 102.892 15.5067 102.145 15.976C101.42 16.424 100.854 17.0533 100.449 17.864C100.044 18.6533 99.841 19.5493 99.841 20.552C99.841 21.5547 100.044 22.4507 100.449 23.24C100.854 24.0293 101.42 24.6587 102.145 25.128C102.892 25.5973 103.724 25.832 104.641 25.832ZM122.53 29.32C121.036 29.32 119.692 29.0747 118.498 28.584C117.324 28.072 116.364 27.3467 115.618 26.408L118.178 24.2C118.818 24.9253 119.532 25.448 120.322 25.768C121.111 26.088 121.943 26.248 122.818 26.248C123.18 26.248 123.5 26.2053 123.778 26.12C124.076 26.0347 124.332 25.9067 124.546 25.736C124.759 25.5653 124.919 25.3733 125.026 25.16C125.154 24.9253 125.218 24.6693 125.218 24.392C125.218 23.88 125.026 23.4747 124.642 23.176C124.428 23.0267 124.087 22.8667 123.618 22.696C123.17 22.5253 122.583 22.3547 121.858 22.184C120.706 21.8853 119.746 21.544 118.978 21.16C118.21 20.7547 117.612 20.3067 117.186 19.816C116.823 19.4107 116.546 18.952 116.354 18.44C116.183 17.928 116.098 17.3733 116.098 16.776C116.098 16.0293 116.258 15.3573 116.578 14.76C116.919 14.1413 117.378 13.608 117.954 13.16C118.53 12.712 119.202 12.3707 119.97 12.136C120.738 11.9013 121.538 11.784 122.37 11.784C123.223 11.784 124.044 11.8907 124.834 12.104C125.644 12.3173 126.391 12.6267 127.074 13.032C127.778 13.416 128.375 13.8853 128.866 14.44L126.69 16.84C126.284 16.456 125.836 16.1147 125.346 15.816C124.876 15.5173 124.396 15.2827 123.906 15.112C123.415 14.92 122.956 14.824 122.53 14.824C122.124 14.824 121.762 14.8667 121.442 14.952C121.122 15.016 120.855 15.1227 120.642 15.272C120.428 15.4213 120.258 15.6133 120.13 15.848C120.023 16.0613 119.97 16.3173 119.97 16.616C119.991 16.872 120.055 17.1173 120.162 17.352C120.29 17.5653 120.46 17.7467 120.674 17.896C120.908 18.0453 121.26 18.216 121.73 18.408C122.199 18.6 122.807 18.7813 123.554 18.952C124.599 19.2293 125.474 19.5387 126.178 19.88C126.882 20.2213 127.436 20.616 127.842 21.064C128.247 21.448 128.535 21.896 128.706 22.408C128.876 22.92 128.962 23.4853 128.962 24.104C128.962 25.1067 128.674 26.0027 128.098 26.792C127.543 27.5813 126.775 28.2 125.794 28.648C124.834 29.096 123.746 29.32 122.53 29.32ZM132.877 29V12.136H136.813V29H132.877ZM134.797 8.552C134.008 8.552 133.389 8.36 132.941 7.976C132.514 7.57067 132.301 7.00533 132.301 6.28C132.301 5.59733 132.525 5.04267 132.973 4.616C133.421 4.18933 134.029 3.976 134.797 3.976C135.608 3.976 136.226 4.17867 136.653 4.584C137.101 4.968 137.325 5.53333 137.325 6.28C137.325 6.94133 137.101 7.48533 136.653 7.912C136.205 8.33867 135.586 8.552 134.797 8.552ZM147.436 29.32C145.943 29.32 144.599 29.0747 143.404 28.584C142.231 28.072 141.271 27.3467 140.524 26.408L143.084 24.2C143.724 24.9253 144.439 25.448 145.228 25.768C146.017 26.088 146.849 26.248 147.724 26.248C148.087 26.248 148.407 26.2053 148.684 26.12C148.983 26.0347 149.239 25.9067 149.452 25.736C149.665 25.5653 149.825 25.3733 149.932 25.16C150.06 24.9253 150.124 24.6693 150.124 24.392C150.124 23.88 149.932 23.4747 149.548 23.176C149.335 23.0267 148.993 22.8667 148.524 22.696C148.076 22.5253 147.489 22.3547 146.764 22.184C145.612 21.8853 144.652 21.544 143.884 21.16C143.116 20.7547 142.519 20.3067 142.092 19.816C141.729 19.4107 141.452 18.952 141.26 18.44C141.089 17.928 141.004 17.3733 141.004 16.776C141.004 16.0293 141.164 15.3573 141.484 14.76C141.825 14.1413 142.284 13.608 142.86 13.16C143.436 12.712 144.108 12.3707 144.876 12.136C145.644 11.9013 146.444 11.784 147.276 11.784C148.129 11.784 148.951 11.8907 149.74 12.104C150.551 12.3173 151.297 12.6267 151.98 13.032C152.684 13.416 153.281 13.8853 153.772 14.44L151.596 16.84C151.191 16.456 150.743 16.1147 150.252 15.816C149.783 15.5173 149.303 15.2827 148.812 15.112C148.321 14.92 147.863 14.824 147.436 14.824C147.031 14.824 146.668 14.8667 146.348 14.952C146.028 15.016 145.761 15.1227 145.548 15.272C145.335 15.4213 145.164 15.6133 145.036 15.848C144.929 16.0613 144.876 16.3173 144.876 16.616C144.897 16.872 144.961 17.1173 145.068 17.352C145.196 17.5653 145.367 17.7467 145.58 17.896C145.815 18.0453 146.167 18.216 146.636 18.408C147.105 18.6 147.713 18.7813 148.46 18.952C149.505 19.2293 150.38 19.5387 151.084 19.88C151.788 20.2213 152.343 20.616 152.748 21.064C153.153 21.448 153.441 21.896 153.612 22.408C153.783 22.92 153.868 23.4853 153.868 24.104C153.868 25.1067 153.58 26.0027 153.004 26.792C152.449 27.5813 151.681 28.2 150.7 28.648C149.74 29.096 148.652 29.32 147.436 29.32Z" fill="black"/>
<path d="M212.648 31.52L204.136 20.256L207.368 18.048L215.784 29.216L212.648 31.52ZM205.672 28.32C204.072 28.32 202.589 28.032 201.224 27.456C199.859 26.88 198.664 26.08 197.64 25.056C196.637 24.0107 195.859 22.784 195.304 21.376C194.749 19.968 194.472 18.432 194.472 16.768C194.472 15.104 194.749 13.568 195.304 12.16C195.859 10.752 196.637 9.536 197.64 8.512C198.664 7.46667 199.859 6.656 201.224 6.08C202.589 5.504 204.072 5.216 205.672 5.216C207.293 5.216 208.787 5.504 210.152 6.08C211.517 6.656 212.701 7.46667 213.704 8.512C214.707 9.55733 215.485 10.784 216.04 12.192C216.595 13.5787 216.872 15.104 216.872 16.768C216.872 18.4107 216.595 19.936 216.04 21.344C215.485 22.752 214.707 23.9787 213.704 25.024C212.701 26.0693 211.517 26.88 210.152 27.456C208.787 28.032 207.293 28.32 205.672 28.32ZM205.672 24.352C206.696 24.352 207.624 24.1707 208.456 23.808C209.309 23.424 210.045 22.8907 210.664 22.208C211.283 21.504 211.763 20.6933 212.104 19.776C212.467 18.8587 212.648 17.856 212.648 16.768C212.648 15.68 212.467 14.6773 212.104 13.76C211.763 12.8427 211.283 12.0427 210.664 11.36C210.045 10.656 209.309 10.1227 208.456 9.76C207.624 9.376 206.696 9.184 205.672 9.184C204.669 9.184 203.741 9.376 202.888 9.76C202.035 10.1227 201.299 10.6453 200.68 11.328C200.061 12.0107 199.581 12.8107 199.24 13.728C198.899 14.6453 198.728 15.6587 198.728 16.768C198.728 17.856 198.899 18.8693 199.24 19.808C199.581 20.7253 200.061 21.5253 200.68 22.208C201.299 22.8907 202.035 23.424 202.888 23.808C203.741 24.1707 204.669 24.352 205.672 24.352Z" fill="black"/>
<ellipse cx="183" cy="22.75" rx="7" ry="6.25" fill="#1580EB"/>
<rect x="176" y="16.5" width="14" height="6.61765" fill="#00B0AB"/>
<rect x="176" y="16.5" width="14" height="6.61765" fill="#00B0AB"/>
<rect x="176" y="16.5" width="14" height="6.61765" fill="#00B0AB"/>
<rect x="176" y="16.5" width="14" height="6.61765" fill="#1580EB"/>
<ellipse cx="183" cy="10.25" rx="7" ry="6.25" fill="#00B0AB"/>
<rect x="176" y="9.88235" width="14" height="6.61765" fill="#00B0AB"/>
<rect x="176" y="9.88235" width="14" height="6.61765" fill="#00B0AB"/>
<rect x="176" y="9.88235" width="14" height="6.61765" fill="#00B0AB"/>
<rect x="176" y="9.88235" width="14" height="6.61765" fill="#00B0AB"/>
</svg>
